<?xml version="1.0" encoding="iso-8859-1"?>
<!-- Generator: Adobe Illustrator 18.0.0, SVG Export Plug-In . SVG Version: 6.00 Build 0)  -->
<!DOCTYPE svg PUBLIC "-//W3C//DTD SVG 1.1//EN" "http://www.w3.org/Graphics/SVG/1.1/DTD/svg11.dtd">
<svg xmlns="http://www.w3.org/2000/svg" xmlns:xlink="http://www.w3.org/1999/xlink" version="1.1" id="Capa_1" x="0px" y="0px" viewBox="0 0 292.757 292.757" style="enable-background:new 0 0 292.757 292.757;" xml:space="preserve" width="512px" height="512px">
<g>
	<path d="M145.399,54.866c0.647-0.117,1.312-0.117,1.959,0l88.848,16.11l0.84-9.786c0.355-4.136-2.495-7.864-6.581-8.604   l-84.087-15.247L62.291,52.586c-4.085,0.741-6.936,4.468-6.58,8.604l0.84,9.786L145.399,54.866z" fill="#FFFFFF"/>
	<path d="M30.277,201.666c-0.392-0.797-0.619-1.69-0.619-2.639v-25.65H3.445c-2.557,0-4.221,2.691-3.077,4.979l8.996,17.993   c0.843,1.686,0.843,3.671,0,5.357l-8.996,17.993c-1.144,2.287,0.52,4.979,3.077,4.979h38.332L30.29,201.706   C30.283,201.692,30.283,201.68,30.277,201.666z" fill="#FFFFFF"/>
	<path d="M244.78,157.559H47.976c-3.503,0-6.342,2.839-6.342,6.342v22.795c0,3.503,2.84,6.342,6.342,6.342H244.78   c3.503,0,6.342-2.84,6.342-6.342v-22.795C251.123,160.399,248.283,157.559,244.78,157.559z" fill="#FFFFFF"/>
	<path d="M146.378,255.417c27.358-13.113,46.087-33.02,58.249-50.402H88.129C100.292,222.398,119.02,242.304,146.378,255.417z" fill="#FFFFFF"/>
	<polygon points="57.494,81.963 62.956,145.583 229.801,145.583 235.263,81.963 146.378,65.847  " fill="#FFFFFF"/>
	<path d="M283.393,196.349l8.996-17.993c1.144-2.288-0.52-4.979-3.077-4.979h-26.213v25.65c0,0.946-0.225,1.838-0.616,2.633   c-0.007,0.016-0.008,0.029-0.016,0.045l-11.486,22.971h38.332c2.558,0,4.221-2.691,3.077-4.979l-8.996-17.993   C282.55,200.02,282.55,198.035,283.393,196.349z" fill="#FFFFFF"/>
</g>
<g>
</g>
<g>
</g>
<g>
</g>
<g>
</g>
<g>
</g>
<g>
</g>
<g>
</g>
<g>
</g>
<g>
</g>
<g>
</g>
<g>
</g>
<g>
</g>
<g>
</g>
<g>
</g>
<g>
</g>
</svg>
